HIERARCHY
ROOT Hips
{
  OFFSET 186.036 92.597 978.733
  CHANNELS 6 Xposition Yposition Zposition Zrotation Xrotation Yrotation
  JOINT Spine
  {
    OFFSET 0 8 0
    CHANNELS 6 Xposition Yposition Zposition Zrotation Xrotation Yrotation
    JOINT Spine1
    {
      OFFSET 2.66023e-05 8 -0.00011063
      CHANNELS 6 Xposition Yposition Zposition Zrotation Xrotation Yrotation
      JOINT Spine2
      {
        OFFSET -1.33723e-05 8 1.57677e-05
        CHANNELS 6 Xposition Yposition Zposition Zrotation Xrotation Yrotation
        JOINT Spine3
        {
          OFFSET 0 8 0
          CHANNELS 6 Xposition Yposition Zposition Zrotation Xrotation Yrotation
          JOINT Neck
          {
            OFFSET 0 17 0
            CHANNELS 6 Xposition Yposition Zposition Zrotation Xrotation Yrotation
            JOINT Head
            {
              OFFSET 1.03326e-05 10.8 4.18444e-05
              CHANNELS 6 Xposition Yposition Zposition Zrotation Xrotation Yrotation
              End Site
              {
                OFFSET 0 20.25 0
              }
            }
          }
          JOINT LeftShoulder
          {
            OFFSET 5 17 0
            CHANNELS 6 Xposition Yposition Zposition Zrotation Xrotation Yrotation
            JOINT LeftShoulder2
            {
              OFFSET 6.45 0 0
              CHANNELS 6 Xposition Yposition Zposition Zrotation Xrotation Yrotation
              JOINT LeftArm
              {
                OFFSET 6.45003 0 0
                CHANNELS 6 Xposition Yposition Zposition Zrotation Xrotation Yrotation
                JOINT LeftForeArm
                {
                  OFFSET 1.56325e-05 -32.4 -1.99996
                  CHANNELS 6 Xposition Yposition Zposition Zrotation Xrotation Yrotation
                  JOINT LeftHand
                  {
                    OFFSET 1.03894e-05 -25.65 2.00001
                    CHANNELS 6 Xposition Yposition Zposition Zrotation Xrotation Yrotation
                    JOINT LeftHandThumb1
                    {
                      OFFSET -0.500038 -1.49992 2.64998
                      CHANNELS 6 Xposition Yposition Zposition Zrotation Xrotation Yrotation
                      JOINT LeftHandThumb2
                      {
                        OFFSET -1.8736e-05 -3.80008 3.69994
                        CHANNELS 6 Xposition Yposition Zposition Zrotation Xrotation Yrotation
                        JOINT LeftHandThumb3
                        {
                          OFFSET 0 -2.99997 2.69995
                          CHANNELS 6 Xposition Yposition Zposition Zrotation Xrotation Yrotation
                          End Site
                          {
                            OFFSET 1.59331e-05 -2.29998 1.79996
                          }
                        }
                      }
                    }
                    JOINT LeftHandIndex
                    {
                      OFFSET 2.45814e-05 -1.90001 1.59996
                      CHANNELS 6 Xposition Yposition Zposition Zrotation Xrotation Yrotation
                      JOINT LeftHandIndex1
                      {
                        OFFSET 8.74916e-05 -8.29998 1.90001
                        CHANNELS 6 Xposition Yposition Zposition Zrotation Xrotation Yrotation
                        JOINT LeftHandIndex2
                        {
                          OFFSET 0 -4.49999 1.19232e-05
                          CHANNELS 6 Xposition Yposition Zposition Zrotation Xrotation Yrotation
                          JOINT LeftHandIndex3
                          {
                            OFFSET 0 -3.39996 0
                            CHANNELS 6 Xposition Yposition Zposition Zrotation Xrotation Yrotation
                            End Site
                            {
                              OFFSET 0 -2.59998 0
                            }
                          }
                        }
                      }
                    }
                    JOINT LeftHandMiddle
                    {
                      OFFSET -0.249955 -2.20001 0.39997
                      CHANNELS 6 Xposition Yposition Zposition Zrotation Xrotation Yrotation
                      JOINT LeftHandMiddle1
                      {
                        OFFSET -7.50269e-05 -8.29994 0.999993
                        CHANNELS 6 Xposition Yposition Zposition Zrotation Xrotation Yrotation
                        JOINT LeftHandMiddle2
                        {
                          OFFSET 0 -4.65 1.13598e-05
                          CHANNELS 6 Xposition Yposition Zposition Zrotation Xrotation Yrotation
                          JOINT LeftHandMiddle3
                          {
                            OFFSET 0 -3.30252 2.35123e-05
                            CHANNELS 6 Xposition Yposition Zposition Zrotation Xrotation Yrotation
                            End Site
                            {
                              OFFSET 0 -2.69949 0
                            }
                          }
                        }
                      }
                    }
                    JOINT LeftHandRing
                    {
                      OFFSET -0.500045 -2.14994 -0.800044
                      CHANNELS 6 Xposition Yposition Zposition Zrotation Xrotation Yrotation
                      JOINT LeftHandRing1
                      {
                        OFFSET 0.000113457 -7.75 -0.199956
                        CHANNELS 6 Xposition Yposition Zposition Zrotation Xrotation Yrotation
                        JOINT LeftHandRing2
                        {
                          OFFSET 0 -3.79994 0
                          CHANNELS 6 Xposition Yposition Zposition Zrotation Xrotation Yrotation
                          JOINT LeftHandRing3
                          {
                            OFFSET -3.01068e-05 -3.39991 0
                            CHANNELS 6 Xposition Yposition Zposition Zrotation Xrotation Yrotation
                            End Site
                            {
                              OFFSET 1.5359e-05 -2.60011 -3.53533e-05
                            }
                          }
                        }
                      }
                    }
                    JOINT LeftHandPinky
                    {
                      OFFSET -0.750021 -1.75 -1.85001
                      CHANNELS 6 Xposition Yposition Zposition Zrotation Xrotation Yrotation
                      JOINT LeftHandPinky1
                      {
                        OFFSET -1.63724e-05 -7.15 -1.00002
                        CHANNELS 6 Xposition Yposition Zposition Zrotation Xrotation Yrotation
                        JOINT LeftHandPinky2
                        {
                          OFFSET 0 -2.99992 0
                          CHANNELS 6 Xposition Yposition Zposition Zrotation Xrotation Yrotation
                          JOINT LeftHandPinky3
                          {
                            OFFSET 0 -2.34991 2.68757e-05
                            CHANNELS 6 Xposition Yposition Zposition Zrotation Xrotation Yrotation
                            End Site
                            {
                              OFFSET 1.60749e-05 -2.10004 -3.69663e-05
                            }
                          }
                        }
                      }
                    }
                  }
                }
              }
            }
          }
          JOINT RightShoulder
          {
            OFFSET -5 17 1.30576e-05
            CHANNELS 6 Xposition Yposition Zposition Zrotation Xrotation Yrotation
            JOINT RightShoulder2
            {
              OFFSET -6.45 0 0
              CHANNELS 6 Xposition Yposition Zposition Zrotation Xrotation Yrotation
              JOINT RightArm
              {
                OFFSET -6.44998 0 -1.90108e-05
                CHANNELS 6 Xposition Yposition Zposition Zrotation Xrotation Yrotation
                JOINT RightForeArm
                {
                  OFFSET -6.23992e-05 -32.4 -2.00008
                  CHANNELS 6 Xposition Yposition Zposition Zrotation Xrotation Yrotation
                  JOINT RightHand
                  {
                    OFFSET 1.3203e-05 -25.65 2
                    CHANNELS 6 Xposition Yposition Zposition Zrotation Xrotation Yrotation
                    JOINT RightHandThumb1
                    {
                      OFFSET 0.499989 -1.49998 2.64998
                      CHANNELS 6 Xposition Yposition Zposition Zrotation Xrotation Yrotation
                      JOINT RightHandThumb2
                      {
                        OFFSET 7.30059e-05 -3.80006 3.69999
                        CHANNELS 6 Xposition Yposition Zposition Zrotation Xrotation Yrotation
                        JOINT RightHandThumb3
                        {
                          OFFSET -0.00083595 -3.00002 2.69999
                          CHANNELS 6 Xposition Yposition Zposition Zrotation Xrotation Yrotation
                          End Site
                          {
                            OFFSET -7.08887e-05 -2.3 1.8
                          }
                        }
                      }
                    }
                    JOINT RightHandIndex
                    {
                      OFFSET -5.01233e-05 -1.90001 1.6
                      CHANNELS 6 Xposition Yposition Zposition Zrotation Xrotation Yrotation
                      JOINT RightHandIndex1
                      {
                        OFFSET 8.9938e-05 -8.30007 1.90002
                        CHANNELS 6 Xposition Yposition Zposition Zrotation Xrotation Yrotation
                        JOINT RightHandIndex2
                        {
                          OFFSET 0.00012456 -4.5001 6.00172e-05
                          CHANNELS 6 Xposition Yposition Zposition Zrotation Xrotation Yrotation
                          JOINT RightHandIndex3
                          {
                            OFFSET 9.73328e-05 -3.4 -0.00125693
                            CHANNELS 6 Xposition Yposition Zposition Zrotation Xrotation Yrotation
                            End Site
                            {
                              OFFSET -0.00170126 -2.60001 0.00109926
                            }
                          }
                        }
                      }
                    }
                    JOINT RightHandMiddle
                    {
                      OFFSET 0.24997 -2.19998 0.400026
                      CHANNELS 6 Xposition Yposition Zposition Zrotation Xrotation Yrotation
                      JOINT RightHandMiddle1
                      {
                        OFFSET 2.39079e-05 -8.29992 0.999994
                        CHANNELS 6 Xposition Yposition Zposition Zrotation Xrotation Yrotation
                        JOINT RightHandMiddle2
                        {
                          OFFSET 0 -4.65001 5.73787e-05
                          CHANNELS 6 Xposition Yposition Zposition Zrotation Xrotation Yrotation
                          JOINT RightHandMiddle3
                          {
                            OFFSET -0.00103269 -3.3 0
                            CHANNELS 6 Xposition Yposition Zposition Zrotation Xrotation Yrotation
                            End Site
                            {
                              OFFSET -0.000128564 -2.70004 5.23797e-05
                            }
                          }
                        }
                      }
                    }
                    JOINT RightHandRing
                    {
                      OFFSET 0.499988 -2.15009 -0.799981
                      CHANNELS 6 Xposition Yposition Zposition Zrotation Xrotation Yrotation
                      JOINT RightHandRing1
                      {
                        OFFSET -0.000362756 -7.75008 -0.200028
                        CHANNELS 6 Xposition Yposition Zposition Zrotation Xrotation Yrotation
                        JOINT RightHandRing2
                        {
                          OFFSET 0.00160483 -3.79999 2.77719e-05
                          CHANNELS 6 Xposition Yposition Zposition Zrotation Xrotation Yrotation
                          JOINT RightHandRing3
                          {
                            OFFSET -0.00349345 -3.39995 4.69157e-05
                            CHANNELS 6 Xposition Yposition Zposition Zrotation Xrotation Yrotation
                            End Site
                            {
                              OFFSET 8.12602e-05 -2.59998 1.9369e-05
                            }
                          }
                        }
                      }
                    }
                    JOINT RightHandPinky
                    {
                      OFFSET 0.750012 -1.74999 -1.8501
                      CHANNELS 6 Xposition Yposition Zposition Zrotation Xrotation Yrotation
                      JOINT RightHandPinky1
                      {
                        OFFSET -1.83062e-05 -7.15 -1.00045
                        CHANNELS 6 Xposition Yposition Zposition Zrotation Xrotation Yrotation
                        JOINT RightHandPinky2
                        {
                          OFFSET -9.63649e-05 -3 6.81171e-05
                          CHANNELS 6 Xposition Yposition Zposition Zrotation Xrotation Yrotation
                          JOINT RightHandPinky3
                          {
                            OFFSET -0.00054614 -2.35003 6.87245e-05
                            CHANNELS 6 Xposition Yposition Zposition Zrotation Xrotation Yrotation
                            End Site
                            {
                              OFFSET -0.000129948 -2.09999 8.83567e-05
                            }
                          }
                        }
                      }
                    }
                  }
                }
              }
            }
          }
        }
      }
    }
  }
  JOINT LeftUpLeg
  {
    OFFSET 8.00003 0 -1.10273e-05
    CHANNELS 6 Xposition Yposition Zposition Zrotation Xrotation Yrotation
    JOINT LeftLeg
    {
      OFFSET 0 -45 -1
      CHANNELS 6 Xposition Yposition Zposition Zrotation Xrotation Yrotation
      JOINT LeftFoot
      {
        OFFSET 3.37663e-05 -41 -1.99999
        CHANNELS 6 Xposition Yposition Zposition Zrotation Xrotation Yrotation
        JOINT LeftToeBase
        {
          OFFSET 0 -7.5 12.5
          CHANNELS 6 Xposition Yposition Zposition Zrotation Xrotation Yrotation
          JOINT LeftFootToe
          {
            OFFSET 0 0 4
            CHANNELS 6 Xposition Yposition Zposition Zrotation Xrotation Yrotation
            End Site
            {
              OFFSET 0 0 0
            }
          }
        }
      }
    }
  }
  JOINT RightUpLeg
  {
    OFFSET -8.00003 0 1.10273e-05
    CHANNELS 6 Xposition Yposition Zposition Zrotation Xrotation Yrotation
    JOINT RightLeg
    {
      OFFSET 4.78827e-05 -45 -1.00005
      CHANNELS 6 Xposition Yposition Zposition Zrotation Xrotation Yrotation
      JOINT RightFoot
      {
        OFFSET -3.63461e-05 -41 -1.99999
        CHANNELS 6 Xposition Yposition Zposition Zrotation Xrotation Yrotation
        JOINT RightToeBase
        {
          OFFSET 1.1951e-05 -7.5 12.4999
          CHANNELS 6 Xposition Yposition Zposition Zrotation Xrotation Yrotation
          JOINT RightFootToe
          {
            OFFSET 0 0 4
            CHANNELS 6 Xposition Yposition Zposition Zrotation Xrotation Yrotation
            End Site
            {
              OFFSET 0 0 0
            }
          }
        }
      }
    }
  }
}
MOTION
Frames:	3
Frame Time:	0.0111111
188.655 92.1459 974.49 1.91638 5.33671 67.764 0 8 0 -8.46375 1.17059 -4.23997 0 8 0 1.37406 -0.530292 -1.62319 0 8 0 0.682561 -0.240441 -0.813602 1.13687e-13 8 0 0.690026 -0.248257 -0.812735 0 17 0 -4.44331 0.746463 13.5472 0 10.8 0 -2.50542 -2.25882 31.7496 5 17 0 -10.4964 -4.74082 -2.48974 6.45 -2.84217e-14 0 -1.31717 -0.874889 -0.160173 6.45 2.84217e-14 0 4.86878 -33.139 0.0497735 0 -32.4 -2 52.6237 -72.0788 80.6388 0 -25.65 2 12.0152 -9.44809 39.8106 -0.5 -1.5 2.65 -18.4425 21.9761 -8.20422 -1.42109e-14 -3.8 3.7 -0.953495 10.7081 -0.0150658 -5.68434e-14 -3 2.7 -0.0827077 4.31551 0.0929456 0 -1.9 1.6 6.48175e-06 -3.37995e-06 -2.94846e-06 -7.10543e-15 -8.3 1.9 -0.389403 -5.29761 -0.0124479 0 -4.5 0 -19.7332 0.0541927 -0.016511 -1.42109e-14 -3.4 1.13687e-13 -15.6356 0.0374466 -0.00382943 -0.25 -2.2 0.4 6.48175e-06 -3.37995e-06 -2.94846e-06 2.84217e-14 -8.3 1 -14.8176 1.88408 1.43069 7.10543e-15 -4.65 -2.27374e-13 -2.06539 -0.00585663 -8.45585e-06 1.42109e-14 -3.3 1.13687e-13 -2.00858 -0.00758595 0.000165482 -0.5 -2.15 -0.8 6.48175e-06 -3.37995e-06 -2.94846e-06 7.10543e-15 -7.75 -0.2 -41.1182 1.85051 4.31306 0 -3.8 0 -1.22505 -2.97936e-05 0.00887116 2.84217e-14 -3.4 1.13687e-13 0.133491 6.63879e-06 0.0287823 -0.75 -1.75 -1.85 6.48175e-06 -3.37995e-06 -2.94846e-06 -4.26326e-14 -7.15 -1 -50.9392 1.48969 6.37977 2.84217e-14 -3 0 -0.0993656 -0.104735 -0.0698043 2.84217e-14 -2.35 0 -0.000108091 -0.109015 -0.0756477 -5 17 0 -6.80108 -2.80916 -1.77393 -6.45 0 0 -0.385019 0.0888216 3.39663 -6.45 2.84217e-14 0 -122.94 -70.2963 -46.6186 2.84217e-14 -32.4 -2 49.2974 -73.4054 62.0296 0 -25.65 2 -26.6183 5.97005 29.0005 0.5 -1.5 2.65 63.7362 -26.3218 -152.528 -1.13687e-13 -3.8 3.7 0.039079 39.1775 -0.00752571 0 -3 2.7 0.02993 68.7704 -0.0487862 1.13687e-13 -1.9 1.6 2.12811e-06 -5.46377e-06 1.89334e-06 0 -8.3 1.9 21.9549 -3.52376 0.492932 0 -4.5 0 8.97238 -0.0652159 0.00244687 0 -3.4 0 7.89955 -0.0521294 0.00775796 0.25 -2.2 0.4 2.12811e-06 -5.46377e-06 1.89334e-06 0 -8.3 1 26.6327 -4.99585 0.648771 -1.13687e-13 -4.65 0 55.3555 -0.0657281 0.0706229 0 -3.3 0 38.4549 -0.00626181 0.0714581 0.5 -2.15 -0.8 2.12811e-06 -5.46377e-06 1.89334e-06 1.13687e-13 -7.75 -0.2 37.7866 1.7385 -1.9814 0 -3.8 0 77.1705 -0.00360885 0.0826719 -2.84217e-14 -3.4 0 61.7692 0.0897596 0.0581255 0.75 -1.75 -1.85 2.12811e-06 -5.46377e-06 1.89334e-06 0 -7.15 -1 59.9588 -7.02564 -0.64851 1.13687e-13 -3 -1.13687e-13 56.1621 0.00249852 0.225877 2.84217e-14 -2.35 0 39.4506 0.0943249 0.128119 8 0 1.13687e-13 1.51977 -4.026 44.0591 0 -45 -1 -0.91691 24.354 -10.4035 1.13687e-13 -41 -2 1.43259 -16.6733 -14.9594 0 -7.5 12.5 -1.86697e-07 4.42133e-05 -2.46366e-06 0 0 4 0.429427 -6.00202 15.6604 -8 2.84217e-14 1.13687e-13 -21.8543 10.565 -16.71 0 -45 -1 -0.0390981 4.0456 -0.148136 0 -41 -2 13.842 8.52134 6.34125 0 -7.5 12.5 5.98365e-05 -17.6568 0.00131507 1.13687e-13 0 4 -12.9932 18.4289 24.5069 
188.639 92.1381 974.456 1.91801 5.3364 67.763 0 8 0 -8.4529 1.16653 -4.24396 1.13687e-13 8 -1.13687e-13 1.37309 -0.529803 -1.62539 0 8 0 0.682335 -0.240454 -0.815331 -1.13687e-13 8 0 0.689291 -0.248153 -0.814537 -1.13687e-13 17 0 -4.41271 0.734101 13.5396 1.13687e-13 10.8 0 -2.51751 -2.24751 31.734 5 17 0 -10.4484 -4.74952 -2.4657 6.45 0 0 -1.31729 -0.873192 -0.164554 6.45 0 0 4.79547 -33.1732 -0.0254949 0 -32.4 -2 52.888 -72.0516 80.6542 0 -25.65 2 12.9315 -8.8547 39.7385 -0.5 -1.5 2.65 -18.9496 22.5355 -8.21395 -4.26326e-14 -3.8 3.7 -0.984596 10.5006 -0.0184523 -1.42109e-14 -3 2.7 -0.0833447 3.65797 0.0921476 2.84217e-14 -1.9 1.6 6.48175e-06 -3.37995e-06 -2.94846e-06 0 -8.3 1.9 -0.404823 -5.39771 -0.012571 1.42109e-14 -4.5 0 -21.4151 0.0392114 -0.00741281 -1.42109e-14 -3.4 0 -16.7534 0.0257619 -0.00115357 -0.25 -2.2 0.4 6.48175e-06 -3.37995e-06 -2.94846e-06 0 -8.3 1 -15.4673 2.00209 1.55723 5.32907e-14 -4.65 0 -2.07399 -0.00595832 0.000215988 2.84217e-14 -3.3 1.13687e-13 -2.01649 -0.00784301 0.000442512 -0.5 -2.15 -0.8 6.48175e-06 -3.37995e-06 -2.94846e-06 0 -7.75 -0.2 -42.4972 1.46628 4.49144 0 -3.8 1.13687e-13 -1.22612 -2.97936e-05 0.00887116 -2.84217e-14 -3.4 -1.13687e-13 0.13252 6.63879e-06 0.0288484 -0.75 -1.75 -1.85 6.48175e-06 -3.37995e-06 -2.94846e-06 -2.84217e-14 -7.15 -1 -52.5937 0.652342 6.52811 2.84217e-14 -3 -1.13687e-13 -0.0993636 -0.10399 -0.0691638 2.84217e-14 -2.35 -1.13687e-13 -0.00010625 -0.108274 -0.0751915 -5 17 0 -6.79627 -2.88099 -1.82009 -6.45 -2.84217e-14 0 -0.374859 0.0850037 3.43389 -6.45 0 0 -122.388 -70.3582 -46.0856 4.26326e-14 -32.4 -2 49.6449 -73.8421 62.927 5.68434e-14 -25.65 2 -26.2898 5.94511 29.8552 0.5 -1.5 2.65 63.1482 -26.8672 -153.932 0 -3.8 3.7 0.04652 40.1129 -0.00762821 0 -3 2.7 0.029773 68.7704 -0.0485415 0 -1.9 1.6 2.12811e-06 -5.46377e-06 1.89334e-06 0 -8.3 1.9 19.5528 -3.72515 0.460113 1.13687e-13 -4.5 -1.13687e-13 8.3883 -0.0770669 -0.000683164 0 -3.4 -1.13687e-13 7.43484 -0.0611215 0.00772679 0.25 -2.2 0.4 2.12811e-06 -5.46377e-06 1.89334e-06 1.13687e-13 -8.3 1 24.6908 -5.22762 0.666108 0 -4.65 0 53.9698 -0.0958998 0.0955331 -1.13687e-13 -3.3 2.27374e-13 37.4284 -0.0142382 0.0980849 0.5 -2.15 -0.8 2.12811e-06 -5.46377e-06 1.89334e-06 1.13687e-13 -7.75 -0.2 35.8426 1.9505 -1.88079 0 -3.8 0 75.1835 -0.0191856 0.163106 2.84217e-14 -3.4 0 59.1967 0.158382 0.130925 0.75 -1.75 -1.85 2.12811e-06 -5.46377e-06 1.89334e-06 -1.13687e-13 -7.15 -1 58.4658 -6.75588 -0.661861 0 -3 0 51.8688 -0.0222906 0.424821 5.68434e-14 -2.35 1.13687e-13 36.4949 0.147491 0.25197 8 0 0 1.52147 -4.06067 44.0684 1.13687e-13 -45 -1 -0.917736 24.4101 -10.4004 -1.13687e-13 -41 -2 1.46365 -16.6968 -14.9278 1.13687e-13 -7.5 12.5 -1.86697e-07 4.42133e-05 -2.46366e-06 0 0 4 0.406086 -6.01827 15.7044 -8 -2.84217e-14 0 -21.8925 10.4873 -16.7102 0 -45 -1 -0.0394572 4.17609 -0.149902 0 -41 -2 13.8472 8.46807 6.36382 0 -7.5 12.5 5.98182e-05 -17.6561 0.00131506 0 0 4 -12.9965 18.4316 24.507 
188.625 92.1304 974.422 1.92012 5.33592 67.7578 -1.13687e-13 8 0 -8.44264 1.16064 -4.24717 1.13687e-13 8 0 1.37175 -0.528982 -1.62798 0 8 0 0.682107 -0.240485 -0.816912 0 8 0 0.688173 -0.248047 -0.816322 0 17 0 -4.38279 0.72024 13.5328 -1.13687e-13 10.8 0 -2.53121 -2.23499 31.7205 5 17 -1.13687e-13 -10.4015 -4.75804 -2.43874 6.45 2.84217e-14 0 -1.31747 -0.868824 -0.173505 6.45 0 0 4.71933 -33.2125 -0.100254 0 -32.4 -2 53.1416 -72.0221 80.6676 0 -25.65 2 13.8138 -8.28869 39.6628 -0.5 -1.5 2.65 -19.3013 22.7503 -8.27582 0 -3.8 3.7 -1.00906 10.3681 -0.020942 -2.84217e-14 -3 2.7 -0.0844392 3.06083 0.0915231 0 -1.9 1.6 6.48175e-06 -3.37995e-06 -2.94846e-06 -1.42109e-14 -8.3 1.9 -0.415961 -5.46778 -0.0124406 -1.42109e-14 -4.5 0 -22.8557 0.0271703 0.00037848 -5.68434e-14 -3.4 0 -17.6917 0.0165314 0.00158502 -0.25 -2.2 0.4 6.48175e-06 -3.37995e-06 -2.94846e-06 -1.42109e-14 -8.3 1 -16.0428 2.28218 1.66307 4.61853e-14 -4.65 0 -2.02181 -0.00602369 0.000501692 2.84217e-14 -3.3 1.13687e-13 -1.96603 -0.00805755 0.000777951 -0.5 -2.15 -0.8 6.48175e-06 -3.37995e-06 -2.94846e-06 1.42109e-14 -7.75 -0.2 -43.6772 1.35016 4.63832 5.68434e-14 -3.8 -1.13687e-13 -1.22722 -2.97936e-05 0.00887116 -2.84217e-14 -3.4 0 0.131548 6.63879e-06 0.0289112 -0.75 -1.75 -1.85 6.48175e-06 -3.37995e-06 -2.94846e-06 -2.84217e-14 -7.15 -1 -53.9811 0.275584 6.66922 5.68434e-14 -3 1.13687e-13 -0.0993615 -0.103233 -0.0685175 2.84217e-14 -2.35 0 -0.000104389 -0.107529 -0.0747207 -5 17 0 -6.79028 -2.95221 -1.85444 -6.45 1.42109e-14 0 -0.363448 0.0797723 3.47881 -6.45 -2.84217e-14 1.13687e-13 -121.805 -70.4199 -45.5058 1.42109e-14 -32.4 -2 50.1034 -74.3034 63.9858 5.68434e-14 -25.65 2 -26.006 5.74999 31.059 0.5 -1.5 2.65 62.5046 -27.5877 -155.781 -1.13687e-13 -3.8 3.7 0.0531833 41.2263 -0.00775665 1.13687e-13 -3 2.7 0.0295961 68.7704 -0.0482659 1.13687e-13 -1.9 1.6 2.12811e-06 -5.46377e-06 1.89334e-06 1.13687e-13 -8.3 1.9 16.9689 -4.1257 0.429204 0 -4.5 0 7.60382 -0.0887654 -0.00818796 -1.13687e-13 -3.4 0 6.7906 -0.0718789 0.0024702 0.25 -2.2 0.4 2.12811e-06 -5.46377e-06 1.89334e-06 0 -8.3 1 22.3891 -5.63464 0.671753 -1.13687e-13 -4.65 1.13687e-13 52.7164 -0.109493 0.105542 0 -3.3 0 36.5032 -0.018739 0.10896 0.5 -2.15 -0.8 2.12811e-06 -5.46377e-06 1.89334e-06 0 -7.75 -0.2 33.2905 1.84579 -1.69333 0 -3.8 0 73.4119 -0.0268079 0.206776 0 -3.4 0 56.9033 0.195944 0.171569 0.75 -1.75 -1.85 2.12811e-06 -5.46377e-06 1.89334e-06 0 -7.15 -1 56.1847 -6.56289 -0.608701 0 -3 0 47.8963 -0.0447777 0.542566 0 -2.35 -1.13687e-13 33.7692 0.172609 0.328342 8 0 0 1.52076 -4.09306 44.073 0 -45 -1 -0.918472 24.4633 -10.3981 -1.13687e-13 -41 -2 1.49436 -16.7209 -14.8903 0 -7.5 12.5 -1.86697e-07 4.42133e-05 -2.46366e-06 -1.13687e-13 0 4 0.375263 -6.03338 15.6882 -8 5.68434e-14 0 -21.9274 10.4244 -16.717 -1.13687e-13 -45 -1 -0.0397976 4.27497 -0.150932 0 -41 -2 13.8562 8.42969 6.38071 1.13687e-13 -7.5 12.5 5.97803e-05 -17.6545 0.00131505 0 7.10543e-15 4 -13.0028 18.4322 24.5071 
